<svg width="163" height="31" viewBox="0 0 163 31" fill="none" xmlns="http://www.w3.org/2000/svg">
<path d="M9.272 23.288C7.45867 23.288 5.816 23.064 4.344 22.616C2.872 22.1467 1.592 21.4853 0.504 20.632L1.624 18.008C2.34933 18.5627 3.096 19.0213 3.864 19.384C4.65333 19.7467 5.48533 20.024 6.36 20.216C7.256 20.3867 8.22667 20.472 9.272 20.472C11.064 20.472 12.376 20.152 13.208 19.512C14.0613 18.872 14.488 18.0293 14.488 16.984C14.488 16.088 14.1893 15.3947 13.592 14.904C13.016 14.4133 11.992 14.0187 10.52 13.72L7.032 13.016C4.96267 12.5893 3.416 11.896 2.392 10.936C1.38933 9.95467 0.888 8.62133 0.888 6.936C0.888 5.57067 1.25067 4.376 1.976 3.352C2.70133 2.328 3.704 1.53867 4.984 0.983999C6.28533 0.429332 7.8 0.151999 9.528 0.151999C11.128 0.151999 12.6 0.386665 13.944 0.855999C15.288 1.304 16.4187 1.976 17.336 2.872L16.248 5.4C15.288 4.568 14.264 3.96 13.176 3.576C12.088 3.17067 10.8507 2.968 9.464 2.968C7.82133 2.968 6.53067 3.30933 5.592 3.992C4.67467 4.67467 4.216 5.60267 4.216 6.776C4.216 7.71467 4.504 8.45067 5.08 8.984C5.67733 9.51733 6.65867 9.92267 8.024 10.2L11.512 10.872C13.6667 11.32 15.256 12.0133 16.28 12.952C17.304 13.8693 17.816 15.1387 17.816 16.76C17.816 18.0613 17.464 19.2027 16.76 20.184C16.0773 21.1653 15.096 21.9333 13.816 22.488C12.536 23.0213 11.0213 23.288 9.272 23.288ZM27.7963 23.288C26.0469 23.288 24.7243 22.8187 23.8283 21.88C22.9323 20.92 22.4843 19.4907 22.4843 17.592V9.368H19.3483V6.872H22.4843V2.616L25.7163 1.752V6.872H30.1963V9.368H25.7163V17.304C25.7163 18.4987 25.9296 19.352 26.3563 19.864C26.7829 20.376 27.4016 20.632 28.2123 20.632C28.6176 20.632 28.9696 20.6 29.2683 20.536C29.5883 20.4507 29.8763 20.3547 30.1323 20.248V22.872C29.8123 23 29.4389 23.096 29.0123 23.16C28.5856 23.2453 28.1803 23.288 27.7963 23.288ZM39.905 23.288C38.305 23.288 36.9183 22.9573 35.745 22.296C34.5717 21.6133 33.665 20.6533 33.025 19.416C32.385 18.1573 32.065 16.664 32.065 14.936C32.065 13.208 32.385 11.7253 33.025 10.488C33.665 9.22933 34.5717 8.26933 35.745 7.608C36.9183 6.92533 38.305 6.584 39.905 6.584C41.505 6.584 42.8917 6.92533 44.065 7.608C45.2597 8.26933 46.177 9.22933 46.817 10.488C47.4783 11.7253 47.809 13.208 47.809 14.936C47.809 16.664 47.4783 18.1573 46.817 19.416C46.177 20.6533 45.2597 21.6133 44.065 22.296C42.8917 22.9573 41.505 23.288 39.905 23.288ZM39.905 20.76C41.313 20.76 42.433 20.2693 43.265 19.288C44.097 18.3067 44.513 16.856 44.513 14.936C44.513 13.016 44.097 11.576 43.265 10.616C42.433 9.63467 41.313 9.144 39.905 9.144C38.5183 9.144 37.409 9.63467 36.577 10.616C35.745 11.576 35.329 13.016 35.329 14.936C35.329 16.856 35.7343 18.3067 36.545 19.288C37.377 20.2693 38.497 20.76 39.905 20.76ZM51.5228 23V10.872C51.5228 10.2107 51.5014 9.54933 51.4588 8.888C51.4374 8.20533 51.3948 7.53333 51.3307 6.872H54.4668L54.8188 11.032H54.3068C54.5201 10.0293 54.8828 9.19733 55.3948 8.536C55.9068 7.87467 56.5254 7.384 57.2508 7.064C57.9974 6.744 58.7761 6.584 59.5868 6.584C59.9281 6.584 60.2161 6.60533 60.4508 6.648C60.6854 6.66933 60.9201 6.712 61.1548 6.776L61.1228 9.656C60.7601 9.50667 60.4401 9.42133 60.1628 9.4C59.9068 9.35733 59.5868 9.336 59.2028 9.336C58.2641 9.336 57.4641 9.54933 56.8028 9.976C56.1414 10.3813 55.6401 10.936 55.2988 11.64C54.9574 12.344 54.7868 13.1013 54.7868 13.912V23H51.5228ZM70.8865 23.288C68.2838 23.288 66.2358 22.552 64.7425 21.08C63.2492 19.608 62.5025 17.5707 62.5025 14.968C62.5025 13.2827 62.8225 11.8107 63.4625 10.552C64.1238 9.29333 65.0305 8.32267 66.1825 7.64C67.3558 6.936 68.7105 6.584 70.2465 6.584C71.7612 6.584 73.0305 6.904 74.0545 7.544C75.0785 8.184 75.8572 9.09067 76.3905 10.264C76.9238 11.416 77.1905 12.7813 77.1905 14.36V15.384H65.0305V13.528H74.9825L74.4385 13.944C74.4385 12.344 74.0758 11.1067 73.3505 10.232C72.6465 9.336 71.6225 8.888 70.2785 8.888C68.7852 8.888 67.6332 9.41067 66.8225 10.456C66.0118 11.48 65.6065 12.8987 65.6065 14.712V15.032C65.6065 16.9307 66.0652 18.36 66.9825 19.32C67.9212 20.28 69.2438 20.76 70.9505 20.76C71.8892 20.76 72.7638 20.632 73.5745 20.376C74.4065 20.0987 75.1958 19.6507 75.9425 19.032L76.9985 21.24C76.2518 21.9013 75.3452 22.4133 74.2785 22.776C73.2118 23.1173 72.0812 23.288 70.8865 23.288ZM81.1873 23V0.439999H95.6513V3.096H84.5153V10.328H94.9153V12.984H84.5153V23H81.1873ZM105.374 23.288C103.774 23.288 102.387 22.9573 101.214 22.296C100.04 21.6133 99.1338 20.6533 98.4938 19.416C97.8538 18.1573 97.5338 16.664 97.5338 14.936C97.5338 13.208 97.8538 11.7253 98.4938 10.488C99.1338 9.22933 100.04 8.26933 101.214 7.608C102.387 6.92533 103.774 6.584 105.374 6.584C106.974 6.584 108.36 6.92533 109.534 7.608C110.728 8.26933 111.646 9.22933 112.286 10.488C112.947 11.7253 113.278 13.208 113.278 14.936C113.278 16.664 112.947 18.1573 112.286 19.416C111.646 20.6533 110.728 21.6133 109.534 22.296C108.36 22.9573 106.974 23.288 105.374 23.288ZM105.374 20.76C106.782 20.76 107.902 20.2693 108.734 19.288C109.566 18.3067 109.982 16.856 109.982 14.936C109.982 13.016 109.566 11.576 108.734 10.616C107.902 9.63467 106.782 9.144 105.374 9.144C103.987 9.144 102.878 9.63467 102.046 10.616C101.214 11.576 100.798 13.016 100.798 14.936C100.798 16.856 101.203 18.3067 102.014 19.288C102.846 20.2693 103.966 20.76 105.374 20.76ZM116.992 23V10.872C116.992 10.2107 116.97 9.54933 116.928 8.888C116.906 8.20533 116.864 7.53333 116.799 6.872H119.936L120.288 11.032H119.776C119.989 10.0293 120.352 9.19733 120.864 8.536C121.376 7.87467 121.994 7.384 122.72 7.064C123.466 6.744 124.245 6.584 125.056 6.584C125.397 6.584 125.685 6.60533 125.92 6.648C126.154 6.66933 126.389 6.712 126.624 6.776L126.592 9.656C126.229 9.50667 125.909 9.42133 125.632 9.4C125.376 9.35733 125.056 9.336 124.672 9.336C123.733 9.336 122.933 9.54933 122.272 9.976C121.61 10.3813 121.109 10.936 120.768 11.64C120.426 12.344 120.256 13.1013 120.256 13.912V23H116.992ZM136.163 30.168C134.713 30.168 133.39 29.9973 132.195 29.656C131.022 29.3147 129.966 28.8027 129.027 28.12L129.827 25.752C130.489 26.2 131.139 26.552 131.779 26.808C132.419 27.0853 133.091 27.288 133.795 27.416C134.499 27.544 135.225 27.608 135.971 27.608C137.507 27.608 138.659 27.2133 139.427 26.424C140.217 25.656 140.611 24.536 140.611 23.064V18.744H140.931C140.59 19.9387 139.886 20.888 138.819 21.592C137.774 22.2747 136.558 22.616 135.171 22.616C133.699 22.616 132.419 22.296 131.331 21.656C130.265 20.9947 129.433 20.0667 128.835 18.872C128.259 17.656 127.971 16.2267 127.971 14.584C127.971 12.9413 128.259 11.5227 128.835 10.328C129.433 9.13333 130.265 8.216 131.331 7.576C132.419 6.91467 133.699 6.584 135.171 6.584C136.579 6.584 137.795 6.936 138.819 7.64C139.865 8.32267 140.558 9.26133 140.899 10.456L140.611 10.2L140.899 6.872H144.035C143.95 7.53333 143.886 8.19467 143.843 8.856C143.801 9.496 143.779 10.1253 143.779 10.744V22.68C143.779 25.112 143.129 26.968 141.827 28.248C140.547 29.528 138.659 30.168 136.163 30.168ZM135.939 20.088C137.347 20.088 138.467 19.608 139.299 18.648C140.153 17.688 140.579 16.3333 140.579 14.584C140.579 12.8347 140.153 11.4907 139.299 10.552C138.467 9.61333 137.347 9.144 135.939 9.144C134.489 9.144 133.337 9.61333 132.483 10.552C131.651 11.4907 131.235 12.8347 131.235 14.584C131.235 16.3333 131.651 17.688 132.483 18.648C133.337 19.608 134.489 20.088 135.939 20.088ZM155.949 23.288C153.346 23.288 151.298 22.552 149.805 21.08C148.312 19.608 147.565 17.5707 147.565 14.968C147.565 13.2827 147.885 11.8107 148.525 10.552C149.186 9.29333 150.093 8.32267 151.245 7.64C152.418 6.936 153.773 6.584 155.309 6.584C156.824 6.584 158.093 6.904 159.117 7.544C160.141 8.184 160.92 9.09067 161.453 10.264C161.986 11.416 162.253 12.7813 162.253 14.36V15.384H150.093V13.528H160.045L159.501 13.944C159.501 12.344 159.138 11.1067 158.413 10.232C157.709 9.336 156.685 8.888 155.341 8.888C153.848 8.888 152.696 9.41067 151.885 10.456C151.074 11.48 150.669 12.8987 150.669 14.712V15.032C150.669 16.9307 151.128 18.36 152.045 19.32C152.984 20.28 154.306 20.76 156.013 20.76C156.952 20.76 157.826 20.632 158.637 20.376C159.469 20.0987 160.258 19.6507 161.005 19.032L162.061 21.24C161.314 21.9013 160.408 22.4133 159.341 22.776C158.274 23.1173 157.144 23.288 155.949 23.288Z" fill="#6CB52D"/>
</svg>
