<svg width="23" height="23" viewBox="0 0 23 23" fill="none" xmlns="http://www.w3.org/2000/svg">
<path d="M7.11719 11.6504C8.01758 13.5098 9.52112 15.0095 11.3828 15.9051C11.5201 15.9701 11.672 15.9983 11.8235 15.9868C11.975 15.9752 12.1209 15.9245 12.2469 15.8395L14.9812 14.0129C15.1021 13.931 15.2417 13.881 15.387 13.8676C15.5324 13.8542 15.6788 13.8778 15.8125 13.9363L20.9312 16.1348C21.1062 16.2076 21.2524 16.3359 21.3472 16.4999C21.4421 16.664 21.4804 16.8546 21.4562 17.0426C21.294 18.3089 20.6759 19.4726 19.7177 20.3162C18.7594 21.1597 17.5266 21.6251 16.25 21.6254C12.3049 21.6254 8.52139 20.0582 5.73179 17.2686C2.94218 14.479 1.375 10.6955 1.375 6.7504C1.37529 5.47377 1.84073 4.24099 2.68425 3.28273C3.52776 2.32447 4.69153 1.70639 5.95781 1.54415C6.14576 1.52001 6.33643 1.55832 6.50047 1.65319C6.66451 1.74805 6.79281 1.89421 6.86562 2.06915L9.06406 7.19884C9.12123 7.33047 9.14515 7.47414 9.1337 7.61719C9.12226 7.76024 9.07581 7.89829 8.99844 8.01915L7.17187 10.7973C7.09056 10.9229 7.04283 11.0673 7.03325 11.2167C7.02368 11.3661 7.05258 11.5154 7.11719 11.6504V11.6504Z" stroke="#191C1F" stroke-width="1.5" stroke-linecap="round" stroke-linejoin="round"/>
</svg>
